<svg xmlns="http://www.w3.org/2000/svg" xmlns:xlink="http://www.w3.org/1999/xlink" viewBox="0 0 1080 1350" width="1080" height="1350"><rect width="1080" height="1350" fill="#0E2A1C"/><rect x="34" y="34" width="1012" height="1282" fill="none" stroke="#C9A227" stroke-width="2" opacity="0.45"/><g transform="translate(478,58) scale(0.118)" opacity="1.0"><rect x="525.0" y="792.0" width="30.0" height="58.0" rx="5.0" fill="#8FA98A"/><path d="M 540.0,780.8 C 435.8,831.2 309.4,867.6 168.0,881.6 L 316.8,874.6 L 428.4,886.6 L 540.0,875.6 L 651.6,886.6 L 763.2,874.6 L 912.0,881.6 C 770.6,867.6 644.2,831.2 540.0,780.8 Z" fill="#BACDB4"/><path d="M 540.0,640.8 C 459.9,691.2 362.6,727.6 253.9,741.6 L 368.4,734.6 L 454.2,746.6 L 540.0,735.6 L 625.8,746.6 L 711.6,734.6 L 826.1,741.6 C 717.4,727.6 620.1,691.2 540.0,640.8 Z" fill="#8FA98A"/><path d="M 540.0,500.8 C 483.0,551.2 413.8,587.6 336.5,601.6 L 417.9,594.6 L 478.9,606.6 L 540.0,595.6 L 601.1,606.6 L 662.1,594.6 L 743.5,601.6 C 666.2,587.6 597.0,551.2 540.0,500.8 Z" fill="#BACDB4"/><path d="M 540.0,360.8 C 504.7,411.2 461.9,447.6 414.0,461.6 L 464.4,454.6 L 502.2,466.6 L 540.0,455.6 L 577.8,466.6 L 615.6,454.6 L 666.0,461.6 C 618.1,447.6 575.3,411.2 540.0,360.8 Z" fill="#8FA98A"/><path d="M 540.0,220.8 C 523.2,271.2 502.8,307.6 480.0,321.6 L 504.0,314.6 L 522.0,326.6 L 540.0,315.6 L 558.0,326.6 L 576.0,314.6 L 600.0,321.6 C 577.2,307.6 556.8,271.2 540.0,220.8 Z" fill="#BACDB4"/><polygon points="540.0,152.0 549.4,177.1 576.1,178.3 555.2,194.9 562.3,220.7 540.0,206.0 517.7,220.7 524.8,194.9 503.9,178.3 530.6,177.1" fill="#C9A227"/></g><text x="540" y="248" font-family="EB Garamond" font-size="66" fill="#F2EFE6" text-anchor="middle">¿De qué tamaño me cabe?</text><text x="540" y="300" font-family="Lato" font-size="26" fill="#BACDB4" text-anchor="middle">La pregunta que más nos hacen</text><line x1="430" y1="340" x2="650" y2="340" stroke="#C9A227" stroke-width="2" opacity="0.9"/><line x1="70" y1="970" x2="1010" y2="970" stroke="#BACDB4" stroke-width="1" opacity="0.13" stroke-dasharray="7 9"/><text x="1002" y="961" font-family="Lato" font-size="19" fill="#BACDB4" text-anchor="end" opacity="0.42">1 m</text><line x1="70" y1="836" x2="1010" y2="836" stroke="#BACDB4" stroke-width="1" opacity="0.13" stroke-dasharray="7 9"/><text x="1002" y="827" font-family="Lato" font-size="19" fill="#BACDB4" text-anchor="end" opacity="0.42">2 m</text><line x1="70" y1="702" x2="1010" y2="702" stroke="#BACDB4" stroke-width="1" opacity="0.13" stroke-dasharray="7 9"/><text x="1002" y="693" font-family="Lato" font-size="19" fill="#BACDB4" text-anchor="end" opacity="0.42">3 m</text><line x1="70" y1="568" x2="1010" y2="568" stroke="#BACDB4" stroke-width="1" opacity="0.13" stroke-dasharray="7 9"/><text x="1002" y="559" font-family="Lato" font-size="19" fill="#BACDB4" text-anchor="end" opacity="0.42">4 m</text><line x1="70" y1="434" x2="1010" y2="434" stroke="#BACDB4" stroke-width="1" opacity="0.13" stroke-dasharray="7 9"/><text x="1002" y="425" font-family="Lato" font-size="19" fill="#BACDB4" text-anchor="end" opacity="0.42">5 m</text><line x1="70" y1="1104" x2="1010" y2="1104" stroke="#BACDB4" stroke-width="2" opacity="0.35"/><circle cx="95.05799999999999" cy="890.3" r="14.1" fill="#C9A227"/><path d="M 71.1,993.5 L 75.4,911.5 Q 95.05799999999999,906.5 114.7,911.5 L 119.0,993.5 Z" fill="#C9A227"/><rect x="77.8" y="993.5" width="13.9" height="110.5" fill="#C9A227"/><rect x="98.4" y="993.5" width="13.9" height="110.5" fill="#C9A227"/><text x="95" y="1148" font-family="Lato" font-size="25" font-weight="bold" fill="#C9A227" text-anchor="middle">1.70 m</text><text x="95" y="1182" font-family="Lato" font-size="20" font-weight="normal" fill="#BACDB4" text-anchor="middle" letter-spacing="0" opacity="1.0"><tspan x="95" dy="0">referencia</tspan></text><path d="M 210.83149999999995,943.2 L 191.6,1006.0 L 230.1,1006.0 Z" fill="#BACDB4" opacity="1.0"/><path d="M 210.83149999999995,988.1 L 182.0,1053.9 L 239.7,1053.9 Z" fill="#BACDB4" opacity="1.0"/><path d="M 210.83149999999995,1032.9 L 173.8,1092.7 L 247.8,1092.7 Z" fill="#BACDB4" opacity="1.0"/><rect x="207.5" y="1092.7" width="6.7" height="11.3" fill="#BACDB4" opacity="0.8"/><text x="211" y="1148" font-family="Lato" font-size="25" font-weight="bold" fill="#C9A227" text-anchor="middle">1 a 1.5 m</text><text x="210" y="1182" font-family="Lato" font-size="20" font-weight="normal" fill="#BACDB4" text-anchor="middle" letter-spacing="0" opacity="1.0"><tspan x="210" dy="0">Depas y</tspan><tspan x="210" dy="26">oficinas</tspan></text><path d="M 363.1869999999999,836.0 L 331.1,940.7 L 395.2,940.7 Z" fill="#BACDB4" opacity="1.0"/><path d="M 363.1869999999999,910.8 L 315.1,1020.4 L 411.3,1020.4 Z" fill="#BACDB4" opacity="1.0"/><path d="M 363.1869999999999,985.5 L 301.5,1085.2 L 424.8,1085.2 Z" fill="#BACDB4" opacity="1.0"/><rect x="357.6" y="1085.2" width="11.1" height="18.8" fill="#BACDB4" opacity="0.8"/><text x="363" y="1148" font-family="Lato" font-size="25" font-weight="bold" fill="#C9A227" text-anchor="middle">1.8 a 2.2 m</text><text x="363" y="1182" font-family="Lato" font-size="20" font-weight="normal" fill="#BACDB4" text-anchor="middle" letter-spacing="0" opacity="1.0"><tspan x="363" dy="0">La más pedida</tspan></text><path d="M 563.3134999999999,735.5 L 519.2,879.4 L 607.4,879.4 Z" fill="#BACDB4" opacity="1.0"/><path d="M 563.3134999999999,838.3 L 497.2,989.1 L 629.4,989.1 Z" fill="#BACDB4" opacity="1.0"/><path d="M 563.3134999999999,941.1 L 478.6,1078.2 L 648.1,1078.2 Z" fill="#BACDB4" opacity="1.0"/><rect x="555.7" y="1078.2" width="15.3" height="25.8" fill="#BACDB4" opacity="0.8"/><text x="563" y="1148" font-family="Lato" font-size="25" font-weight="bold" fill="#C9A227" text-anchor="middle">2.5 a 3 m</text><text x="563" y="1182" font-family="Lato" font-size="20" font-weight="normal" fill="#BACDB4" text-anchor="middle" letter-spacing="0" opacity="1.0"><tspan x="563" dy="0">Doble altura</tspan></text><path d="M 855.8999999999999,434.0 L 775.8,695.7 L 936.0,695.7 Z" fill="#BACDB4" opacity="1.0"/><path d="M 855.8999999999999,620.9 L 735.7,895.1 L 976.1,895.1 Z" fill="#BACDB4" opacity="1.0"/><path d="M 855.8999999999999,807.9 L 701.8,1057.1 L 1010.0,1057.1 Z" fill="#BACDB4" opacity="1.0"/><rect x="842.0" y="1057.1" width="27.7" height="46.9" fill="#BACDB4" opacity="0.8"/><text x="856" y="1148" font-family="Lato" font-size="25" font-weight="bold" fill="#C9A227" text-anchor="middle">4 a 6 m</text><text x="855" y="1182" font-family="Lato" font-size="20" font-weight="normal" fill="#BACDB4" text-anchor="middle" letter-spacing="0" opacity="1.0"><tspan x="855" dy="0">Lobbies y plazas</tspan></text><rect x="96" y="1216" width="888" height="76" rx="8" fill="#1B4630" stroke="#C9A227" stroke-width="2"/><text x="540" y="1264" font-family="Lato" font-size="27" fill="#F2EFE6" text-anchor="middle">Deja mínimo 30 cm entre la punta y el techo</text><text x="540" y="1328" font-family="Lato" font-size="22" fill="#C9A227" text-anchor="middle" letter-spacing="1.5" opacity="0.95">@arbolesdenavidad.mx</text></svg>